<?xml version="1.0" encoding="utf-8"?>
<!-- Generator: Adobe Illustrator 16.0.0, SVG Export Plug-In . SVG Version: 6.00 Build 0)  -->
<!DOCTYPE svg PUBLIC "-//W3C//DTD SVG 1.1//EN" "http://www.w3.org/Graphics/SVG/1.1/DTD/svg11.dtd">
<svg version="1.1" id="Layer_1" xmlns="http://www.w3.org/2000/svg" xmlns:xlink="http://www.w3.org/1999/xlink" x="0px" y="0px"
	 width="160px" height="50px" viewBox="0 0 820 222" xml:space="preserve">
<g x="0" y="0" transform="translate(-100,-272)" fill="white" stroke="white">
	<path d="M143.868,272l-37.763,222h32.467l8.243-51h37.828l7.938,51h32.809l-37.226-222H143.868z M151.653,412l14.184-100.092
		L180.02,412H151.653z"/>
	<path d="M349.411,396.38C361.139,385.7,367,372.459,367,357.029v-32.673c0-15.85-3.729-28.39-11.247-37.188
		C347.209,277.13,333.644,272,315.258,272H263v222h31v-85h25.416l20.57,85h33.778l-24.934-97.157L349.411,396.38z M336,357.748
		c0,5.743-1.564,10.365-5.585,14.449c-4.023,4.089-8.506,5.804-14.26,5.804H294v-75h22.154c13.798,0,19.846,7.98,19.846,21.896
		V357.748z"/>
	<polygon points="443,272 412,272 412,494 502,494 502,463 443,463 	"/>
	<path d="M584.274,463c-0.02,0-0.039,0-0.058,0c-0.022,0-0.041,0-0.061,0c-5.743,0-10.317-2.408-14.397-6.43
		c-4.093-4.023-5.759-9.353-5.759-15.104V272h-31v169.825c0,14.383,5.006,26.796,15.098,36.886
		c10.064,10.065,22.448,15.176,36.91,15.203c13.784-0.025,25.564-4.739,35.507-13.933c0.405-0.379,0.975-0.714,1.375-1.103
		c10.202-9.973,15.11-22.438,15.11-37.054V272h-31v169.467c0,5.748-2.508,11.072-6.533,15.096
		C595.443,460.586,590.022,463,584.274,463z"/>
	<polygon points="707,272 676,272 676,494 766,494 766,463 707,463 	"/>
	<path d="M879.447,272h-44.299l-37.764,222h32.468l8.244-51h37.826l7.938,51h32.812L879.447,272z M856.652,311.908L871.302,412H842"
		/>
</g>
</svg>
